<svg width="18" height="20" viewBox="0 0 18 20" fill="none" xmlns="http://www.w3.org/2000/svg">
<path d="M3.75 10.9375C3.75 10.418 4.16797 10 4.6875 10H12.8125C13.332 10 13.75 10.418 13.75 10.9375C13.75 11.457 13.332 11.875 12.8125 11.875H4.6875C4.16797 11.875 3.75 11.457 3.75 10.9375ZM9.0625 13.75C9.58203 13.75 10 14.168 10 14.6875C10 15.207 9.58203 15.625 9.0625 15.625H4.6875C4.16797 15.625 3.75 15.207 3.75 14.6875C3.75 14.168 4.16797 13.75 4.6875 13.75H9.0625ZM5.9375 2.5H11.5625V0.9375C11.5625 0.419922 11.9805 0 12.5 0C13.0195 0 13.4375 0.419922 13.4375 0.9375V2.5H15C16.3789 2.5 17.5 3.61914 17.5 5V17.5C17.5 18.8789 16.3789 20 15 20H2.5C1.11914 20 0 18.8789 0 17.5V5C0 3.61914 1.11914 2.5 2.5 2.5H4.0625V0.9375C4.0625 0.419922 4.48047 0 5 0C5.51953 0 5.9375 0.419922 5.9375 0.9375V2.5ZM1.875 17.5C1.875 17.8438 2.15469 18.125 2.5 18.125H15C15.3438 18.125 15.625 17.8438 15.625 17.5V7.5H1.875V17.5Z" fill="black"/>
</svg>
