<svg width="140" height="82" viewBox="0 0 140 82" fill="none" xmlns="http://www.w3.org/2000/svg">
<path d="M77.6837 81.0171C80.4785 81.3636 81.7313 78.5039 82.1894 77.0197C80.7465 77.1078 79.3003 76.9287 77.9229 76.4917C77.8318 76.7296 77.6719 76.9349 77.4625 77.0811C77.2532 77.2272 77.0044 77.3076 76.7488 77.3118C76.3669 77.2753 76.0144 77.0923 75.7656 76.8015C75.5168 76.5108 75.3913 76.135 75.4158 75.7538C75.4158 75.6789 75.4155 75.5981 75.4278 75.514C74.4069 75.0214 73.4206 74.46 72.4763 73.8339C71.8787 74.4959 71.2343 75.1147 70.5482 75.6852C69.8623 75.1137 69.2173 74.495 68.618 73.8339C67.6749 74.4608 66.6893 75.0223 65.6685 75.514C65.6768 75.5981 65.6806 75.6789 65.6806 75.7538C65.7045 76.1357 65.5785 76.5117 65.3287 76.8025C65.0789 77.0933 64.7262 77.276 64.3436 77.3118C64.0879 77.3076 63.8392 77.2272 63.6298 77.0811C63.4204 76.9349 63.2585 76.7296 63.1674 76.4917C61.7901 76.9288 60.3438 77.1079 58.9009 77.0197C59.359 78.4998 60.6097 81.3585 63.4066 81.0171C63.4066 81.0171 60.1981 83.5017 58.34 80.5702C58.34 80.5702 57.4712 79.0245 57.0532 78.2127C56.6353 77.4009 54.6614 74.7851 53.0441 77.8786C52.8455 77.3613 52.7744 76.804 52.8371 76.2537C52.8998 75.7035 53.0941 75.1763 53.404 74.7165C53.0904 74.4637 52.7838 74.1993 52.4832 73.9232C52.4832 77.1007 48.9325 77.5946 48.9325 77.5946C51.0696 75.8961 50.5689 73.1153 50.0645 71.5727C49.9811 71.9563 49.8138 72.3168 49.5739 72.6282C49.334 72.9396 49.0277 73.1941 48.6772 73.3737C49.932 71.5574 48.0298 69.5432 48.0298 69.5432C46.3148 68.0446 44.2637 66.7963 42.0443 67.0618C40.0503 67.2986 37.8324 69.2564 38.2966 71.7564C38.3679 72.3365 38.5801 72.8903 38.9159 73.3697C39.2516 73.8491 39.7007 74.2392 40.2227 74.5063C40.7413 74.7348 41.3145 74.8122 41.8754 74.7293C42.4363 74.6463 42.9619 74.4065 43.3914 74.0378C44.0054 73.4735 44.3844 72.7002 44.453 71.871C44.3429 72.2049 44.1603 72.5107 43.9182 72.7663C43.676 73.022 43.3799 73.2213 43.0516 73.3502C40.3978 74.205 39.5963 69.4983 41.9599 68.543C42.4073 68.3857 42.8903 68.3657 43.3492 68.4859C43.8081 68.6062 44.2217 68.8611 44.5334 69.2174C46.9258 71.7553 44.6114 75.7096 41.799 75.9505C40.6133 75.9841 39.4629 75.5477 38.6002 74.737C37.7376 73.9263 37.2336 72.8076 37.1988 71.627C37.1138 70.4772 37.3985 69.3306 38.0131 68.3535C38.6278 67.3765 39.5387 66.6202 40.6148 66.1947C40.6797 66.166 40.748 66.1445 40.8118 66.1199C40.6389 66.1014 40.4621 66.0891 40.2871 66.0768H38.7892C38.3712 66.1066 37.9555 66.1626 37.5447 66.2447C36.2921 66.4812 35.1046 66.9801 34.0603 67.7084C33.5699 68.003 33.1569 68.4088 32.854 68.8928C32.5511 69.3768 32.3666 69.9252 32.3172 70.4934C32.3108 70.7654 32.3604 71.036 32.4619 71.2887C32.5635 71.5413 32.7152 71.7708 32.9083 71.9633C33.1218 72.1617 33.394 72.2859 33.6844 72.3172C33.9747 72.3484 34.2676 72.2851 34.5188 72.1367C34.7699 71.9884 34.9661 71.7628 35.0777 71.4941C35.1893 71.2254 35.2105 70.928 35.138 70.6463C35.1068 70.4894 35.018 70.3497 34.8887 70.2549C34.7594 70.1601 34.6 70.117 34.4403 70.1338C34.2806 70.1506 34.1327 70.2263 34.0262 70.346C33.9197 70.4657 33.8609 70.6205 33.8633 70.7804C33.8497 70.8526 33.8222 70.9212 33.7809 70.9821C33.7395 71.043 33.6863 71.0948 33.6241 71.1343C33.5618 71.1737 33.4918 71.2002 33.419 71.2118C33.3461 71.2234 33.2713 71.22 33.1998 71.2018C33.0577 71.143 32.9411 71.0353 32.8721 70.8983C32.8031 70.7613 32.7861 70.6042 32.8238 70.4556C32.8505 70.2045 32.9337 69.9623 33.0651 69.7464C33.1965 69.5305 33.3727 69.3459 33.5838 69.2061C33.795 69.0663 34.0347 68.9747 34.2855 68.9376C34.5363 68.9006 34.7926 68.9192 35.0355 68.9919C35.5319 69.2474 35.9201 69.6718 36.1292 70.1878C36.3383 70.7039 36.3549 71.2774 36.1755 71.8044C36.0129 72.342 35.6678 72.8072 35.2003 73.1212C34.7329 73.4352 34.1715 73.5786 33.61 73.5273C33.0334 73.4252 32.5002 73.1536 32.0799 72.7476C31.6597 72.3415 31.3715 71.8196 31.2516 71.2489C31.0817 70.3657 31.1688 69.4527 31.5029 68.6173C31.837 67.7819 32.4043 67.0588 33.1375 66.5338C33.3341 66.3718 33.5378 66.2263 33.7427 66.0818H0.751233C0.538364 66.0681 0.339829 65.9713 0.198326 65.8123C0.0568228 65.6534 -0.0165858 65.4453 -0.00474148 65.2332C-0.0165858 65.0212 0.0568228 64.8129 0.198326 64.6539C0.339829 64.495 0.538364 64.3981 0.751233 64.3844H139.239C139.452 64.3976 139.651 64.4944 139.792 64.6534C139.934 64.8125 140.006 65.021 139.993 65.2332C140.006 65.4454 139.934 65.6537 139.792 65.8128C139.651 65.9719 139.452 66.0686 139.239 66.0818H107.344C107.549 66.2223 107.755 66.3718 107.951 66.5338C108.684 67.0588 109.251 67.7819 109.585 68.6173C109.92 69.4527 110.007 70.3657 109.837 71.2489C109.716 71.8193 109.427 72.3409 109.006 72.7468C108.586 73.1528 108.055 73.4245 107.478 73.5273C106.917 73.5792 106.354 73.436 105.886 73.1219C105.418 72.8079 105.075 72.3423 104.913 71.8044C104.732 71.2777 104.748 70.7039 104.957 70.1876C105.166 69.6713 105.554 69.247 106.051 68.9919C106.294 68.9192 106.55 68.9006 106.801 68.9376C107.052 68.9747 107.289 69.0663 107.5 69.2061C107.712 69.3459 107.89 69.5305 108.021 69.7464C108.153 69.9623 108.236 70.2045 108.262 70.4556C108.3 70.6042 108.281 70.7613 108.212 70.8983C108.143 71.0353 108.029 71.143 107.886 71.2018C107.815 71.2202 107.74 71.2236 107.667 71.2121C107.595 71.2005 107.524 71.1743 107.462 71.1348C107.4 71.0952 107.346 71.0433 107.305 70.9824C107.264 70.9214 107.236 70.8526 107.223 70.7804C107.225 70.6208 107.168 70.466 107.062 70.3465C106.956 70.227 106.809 70.1514 106.65 70.1345C106.491 70.1177 106.331 70.161 106.202 70.2556C106.072 70.3503 105.983 70.4897 105.952 70.6463C105.879 70.9276 105.899 71.2248 106.011 71.4934C106.122 71.7619 106.317 71.9871 106.568 72.1355C106.818 72.2839 107.112 72.3475 107.402 72.3164C107.692 72.2853 107.965 72.1614 108.178 71.9633C108.372 71.7713 108.524 71.5418 108.626 71.2892C108.729 71.0365 108.777 70.7657 108.771 70.4934C108.72 69.9249 108.536 69.3767 108.232 68.8928C107.928 68.409 107.513 68.003 107.022 67.7084C105.978 66.9805 104.791 66.4816 103.54 66.2447C103.128 66.1626 102.712 66.1066 102.293 66.0768H100.797C100.62 66.0891 100.443 66.1014 100.27 66.1199C100.336 66.1445 100.404 66.167 100.467 66.1947C101.544 66.6198 102.454 67.3759 103.069 68.353C103.684 69.3302 103.971 70.4771 103.885 71.627C103.869 72.2118 103.736 72.7878 103.495 73.3216C103.255 73.8555 102.909 74.3368 102.482 74.7383C102.055 75.1398 101.554 75.4537 101.004 75.6617C100.455 75.8697 99.8686 75.9677 99.2812 75.9505C96.472 75.7096 94.1576 71.7553 96.5468 69.2174C96.8585 68.8611 97.2722 68.6062 97.7311 68.4859C98.19 68.3657 98.6729 68.3857 99.1204 68.543C101.481 69.4983 100.681 74.206 98.0306 73.3502C97.7018 73.2214 97.4069 73.0222 97.1641 72.7666C96.9212 72.511 96.7361 72.2051 96.6253 71.871C96.6939 72.7002 97.0729 73.4735 97.6868 74.0378C98.1167 74.4066 98.6436 74.6463 99.2048 74.7293C99.7661 74.8122 100.339 74.7349 100.858 74.5063C101.38 74.2401 101.829 73.85 102.164 73.3704C102.5 72.8909 102.712 72.3367 102.782 71.7564C103.246 69.2564 101.032 67.2986 99.0339 67.0618C96.8125 66.7963 94.7665 68.0446 93.0485 69.5432C93.0485 69.5432 91.1461 71.5564 92.4031 73.3737C92.0524 73.1946 91.746 72.9402 91.5063 72.6287C91.2667 72.3172 91.1002 71.9564 91.0178 71.5727C90.5093 73.1102 90.0096 75.8961 92.1497 77.5946C92.1497 77.5946 88.6011 77.1048 88.6011 73.9232C88.2974 74.1979 87.9912 74.4633 87.6762 74.7165C87.9867 75.176 88.1818 75.703 88.2452 76.2533C88.3086 76.8035 88.2381 77.361 88.0401 77.8786C86.426 74.7851 84.45 77.407 84.0331 78.2127C83.6161 79.0183 82.7403 80.5702 82.7403 80.5702C82.5083 81.001 82.1618 81.3613 81.741 81.613C81.3202 81.8647 80.8406 81.9984 80.3497 82.0001C79.3848 81.935 78.4584 81.5936 77.6837 81.0171ZM86.6166 71.8947C86.0433 73.0284 85.1779 73.9891 84.1075 74.6782C83.037 75.3674 81.8001 75.76 80.5266 75.8153C81.6567 75.9109 82.7944 75.7996 83.8843 75.4873C85.1549 75.0707 86.3296 74.4027 87.3344 73.5233C89.1657 72.0217 90.6965 70.1121 92.4815 68.5377C90.3908 69.4041 88.419 70.5337 86.6166 71.8988V71.8947ZM53.7639 73.5243C54.7678 74.404 55.9398 75.0721 57.21 75.4883C58.3006 75.8007 59.441 75.912 60.5717 75.8163C59.2979 75.761 58.0617 75.3686 56.9909 74.6795C55.9201 73.9903 55.0535 73.0294 54.4797 71.8957C52.679 70.5324 50.7097 69.4045 48.6209 68.5397C50.4007 70.1162 51.9295 72.027 53.7639 73.5286V73.5243ZM72.8081 70.9055C73.8653 72.7382 76.3666 74.0645 78.9483 74.3669C80.102 74.5631 81.2882 74.4698 82.3965 74.0954C83.5048 73.721 84.5002 73.0773 85.2957 72.2226C83.2696 72.9775 81.1083 73.3061 78.9483 73.1873C76.6716 73.0112 74.5094 72.1217 72.7719 70.6463C72.778 70.7375 72.7958 70.8275 72.804 70.9095L72.8081 70.9055ZM62.154 74.3669C64.7358 74.0594 67.2351 72.7372 68.2923 70.9055C68.3067 70.8205 68.3141 70.7334 68.3285 70.6463C66.5917 72.1229 64.4291 73.0126 62.152 73.1873C59.992 73.3061 57.8307 72.9775 55.8047 72.2226C56.5996 73.0776 57.596 73.722 58.7039 74.0971C59.8118 74.4723 60.9964 74.5662 62.15 74.3709L62.154 74.3669ZM78.9483 72.1663C81.3543 72.4604 83.7917 71.9921 85.915 70.8277C86.0652 70.7437 86.0857 69.9503 86.0919 69.7822C86.1155 69.0197 85.9216 68.2662 85.5309 67.6101C85.1403 66.9539 84.5694 66.4221 83.8863 66.0768H81.7953C81.2869 66.236 80.8379 66.5442 80.5085 66.9614C80.1792 67.3786 79.9848 67.8853 79.9496 68.4148C79.8549 70.2383 81.9056 71.3082 82.8167 70.1315C82.6268 70.1394 82.4377 70.1093 82.2597 70.0429C82.0817 69.9766 81.9173 69.8754 81.7792 69.7454C81.6411 69.6154 81.5319 69.4592 81.4555 69.2859C81.3791 69.1127 81.3376 68.9259 81.3349 68.7367C81.3451 68.4466 81.4467 68.1669 81.6244 67.9369C81.8021 67.7068 82.0471 67.5379 82.3261 67.4537C82.605 67.3694 82.9044 67.374 83.1806 67.4669C83.4567 67.5599 83.6958 67.7364 83.8662 67.9719C84.8956 69.3044 83.7497 70.9251 82.5432 71.415C81.8835 71.6081 81.175 71.5373 80.5668 71.2178C79.9586 70.8984 79.4986 70.3553 79.2861 69.7041C79.0503 69.1351 78.9733 68.5135 79.0609 67.9041C79.1486 67.2947 79.398 66.72 79.7847 66.2397C79.8269 66.1833 79.8732 66.1301 79.9174 66.0778H71.4871C71.8558 66.6848 72.1384 67.3403 72.3235 68.0252C74.3319 69.7759 76.6861 68.0068 77.0021 70.0199C75.9028 70.3498 74.7171 70.2346 73.7028 69.6991C75.1089 71.1038 76.9619 71.9774 78.9443 72.1703L78.9483 72.1663ZM55.0105 69.7822C55.0187 69.9513 55.036 70.7437 55.1894 70.8277C57.3119 71.9921 59.7488 72.4604 62.154 72.1663C64.1387 71.9766 65.9946 71.1046 67.4036 69.7001C66.3893 70.2358 65.2035 70.3511 64.1043 70.0209C64.4203 68.0078 66.7724 69.7769 68.7849 68.0262C68.9554 67.3406 69.2279 66.6843 69.5931 66.0788H61.187C61.2333 66.1321 61.2774 66.1813 61.3197 66.2407C61.7067 66.7208 61.9578 67.2956 62.0455 67.9051C62.1331 68.5146 62.0545 69.1361 61.8183 69.7051C61.6067 70.3555 61.1486 70.8981 60.5416 71.2176C59.9345 71.537 59.2261 71.6083 58.5672 71.416C57.3545 70.9261 56.2046 69.3023 57.2402 67.9729C57.4106 67.7374 57.6517 67.5609 57.9278 67.4679C58.204 67.375 58.5014 67.3704 58.7803 67.4547C59.0592 67.5389 59.3063 67.7078 59.484 67.9379C59.6617 68.1679 59.7613 68.4476 59.7715 68.7377C59.7685 68.9268 59.7274 69.1133 59.6509 69.2865C59.5744 69.4596 59.4652 69.6159 59.3272 69.7459C59.1892 69.8759 59.0265 69.977 58.8487 70.0434C58.6708 70.1099 58.4816 70.1403 58.2917 70.1328C59.2007 71.3095 61.2495 70.2352 61.1528 68.4158C61.118 67.8868 60.9244 67.3804 60.5958 66.9632C60.2672 66.546 59.8188 66.2375 59.3111 66.0778H57.2201C56.5358 66.4228 55.9632 66.9548 55.5714 67.6113C55.1797 68.2679 54.9836 69.0218 55.0065 69.7852L55.0105 69.7822ZM86.4518 67.4349C86.6708 67.8414 86.8386 68.2734 86.9504 68.7211C86.9905 68.8831 87.2483 69.9984 87.1052 70.0947C88.0771 69.4341 89.0928 68.8396 90.1452 68.3153C91.7031 67.4519 93.3226 66.7039 94.9907 66.0768H85.4043C85.8229 66.4725 86.1742 66.9319 86.4478 67.4379L86.4518 67.4349ZM50.9552 68.3153C52.008 68.8387 53.0238 69.4333 53.9951 70.0947C53.8521 69.9984 54.1139 68.8831 54.152 68.7211C54.2636 68.2731 54.432 67.841 54.6526 67.4349C54.926 66.9294 55.2787 66.4709 55.6981 66.0768H46.1117C47.7791 66.7049 49.398 67.4541 50.9552 68.3185V68.3153ZM93.0464 59.5812V53.9775H94.0759V59.5812H93.0464ZM87.3847 59.5812L87.3766 55.8666L85.547 58.9416H85.0866L83.255 55.9139V59.5822H82.2718V53.9788H83.1203L85.3299 57.6931L87.5033 53.9788H88.3558L88.3618 59.5822L87.3847 59.5812ZM77.2977 59.5812L76.7407 58.2827H73.9541L73.4072 59.5812H72.3376L74.8488 53.9775H75.8641L78.3793 59.5812H77.2977ZM74.3059 57.4677H76.3989L75.3474 55.017L74.3059 57.4677ZM67.4619 59.5812L67.4539 55.8666L65.6243 58.9416H65.1618L63.3322 55.9139V59.5822H62.3471V53.9788H63.1975L65.4091 57.6931L67.5806 53.9788H68.431L68.4411 59.5822L67.4619 59.5812ZM57.3729 59.5812L56.816 58.2827H54.0293L53.4804 59.5812H52.4168L54.922 53.9775H55.9414L58.4526 59.5812H57.3729ZM54.3812 57.4677H56.4722L55.4226 55.017L54.3812 57.4677ZM47.493 59.5812V57.1776H44.6098V59.5812H43.5804V53.9775H44.6098V56.291H47.493V53.9775H48.5224V59.5812H47.493ZM8.28484 53.3064L8.62664 52.4165C8.94312 52.578 9.29238 52.6608 9.648 52.6575C10.1771 52.6575 10.4422 52.4764 10.4422 52.1142C10.4434 52.0424 10.426 51.9713 10.3919 51.908C10.3579 51.8447 10.3079 51.7911 10.2472 51.7523C10.0654 51.6487 9.85695 51.6009 9.648 51.615H9.18356L9.53541 50.2824C8.81911 50.198 8.12537 49.9776 7.49267 49.6328C6.65634 49.183 5.96059 48.5122 5.4821 47.6944C4.99122 46.8453 4.73973 45.8798 4.75428 44.9002C4.7386 43.9193 4.993 42.9531 5.49015 42.1062C5.97359 41.2894 6.67144 40.6192 7.50876 40.1678C8.39041 39.6929 9.37957 39.4508 10.3819 39.4646C11.1901 39.4538 11.9921 39.6081 12.7383 39.9178C13.4349 40.2084 14.0528 40.6586 14.5417 41.2318L13.2811 42.4247C12.9311 42.0278 12.4975 41.7113 12.0124 41.4973C11.5274 41.2834 11.0028 41.177 10.4723 41.1855C9.79685 41.1747 9.13028 41.3394 8.53817 41.6632C7.97602 41.9689 7.51129 42.4267 7.19913 42.9835C6.87055 43.5686 6.70419 44.2299 6.71659 44.9002C6.70409 45.5704 6.87045 46.232 7.19913 46.817C7.51093 47.3742 7.97575 47.8318 8.53817 48.1371C9.13025 48.461 9.79684 48.6257 10.4723 48.6148C11.0042 48.6225 11.5311 48.5142 12.0165 48.2975C12.5018 48.0807 12.9332 47.761 13.2811 47.3603L14.5417 48.5677C14.051 49.1417 13.4311 49.592 12.7322 49.8818C12.0389 50.1681 11.2972 50.3204 10.5467 50.3307L10.3979 50.924C10.7618 50.9441 11.1072 51.0911 11.3731 51.3392C11.483 51.4517 11.5674 51.5852 11.6244 51.7316C11.6813 51.8779 11.7079 52.0341 11.7028 52.191C11.706 52.3973 11.6571 52.6011 11.5601 52.7833C11.4631 52.9656 11.3211 53.1204 11.1479 53.2335C10.7067 53.5155 10.1897 53.6531 9.6661 53.6272C9.18325 53.6441 8.70378 53.5345 8.2768 53.3094L8.28484 53.3064ZM111.204 49.6285C110.367 49.1794 109.67 48.5087 109.191 47.6904C108.7 46.8414 108.448 45.876 108.461 44.8962C108.446 43.9151 108.702 42.9487 109.199 42.1019C109.682 41.2847 110.38 40.6146 111.218 40.1638C112.1 39.6886 113.09 39.4464 114.093 39.4606C114.901 39.4502 115.703 39.6042 116.449 39.9135C117.144 40.2068 117.761 40.6566 118.251 41.2276L116.986 42.4207C116.637 42.0234 116.206 41.7066 115.722 41.4926C115.237 41.2785 114.712 41.1724 114.182 41.1815C113.506 41.1704 112.837 41.3351 112.245 41.6592C111.683 41.9643 111.22 42.422 110.908 42.9793C110.582 43.5651 110.415 44.2262 110.426 44.8962C110.415 45.5662 110.582 46.227 110.908 46.8128C111.22 47.3702 111.683 47.8281 112.245 48.1331C112.837 48.4573 113.506 48.622 114.182 48.6108C114.713 48.6191 115.239 48.511 115.724 48.2942C116.208 48.0774 116.64 47.7571 116.986 47.3561L118.251 48.5635C117.759 49.1357 117.141 49.5856 116.443 49.8775C115.693 50.1862 114.887 50.3405 114.075 50.3307C113.071 50.3474 112.08 50.1066 111.196 49.6315L111.204 49.6285ZM99.6009 49.9854C98.9455 49.8047 98.3347 49.4904 97.8075 49.0627L98.483 47.5365C98.9582 47.9046 99.4935 48.1886 100.065 48.376C100.671 48.5886 101.309 48.6983 101.951 48.7009C102.559 48.7432 103.165 48.6124 103.7 48.3237C103.877 48.2233 104.023 48.0783 104.125 47.9033C104.226 47.7284 104.282 47.5297 104.282 47.3275C104.285 47.1871 104.258 47.0474 104.203 46.9181C104.148 46.7888 104.064 46.6727 103.96 46.578C103.723 46.3705 103.445 46.2147 103.144 46.1201C102.81 46.0074 102.359 45.8822 101.79 45.7417C101.132 45.5931 100.482 45.4013 99.8482 45.1677C99.3531 44.9806 98.9156 44.6713 98.5735 44.2688C98.1975 43.8026 98.006 43.2145 98.0387 42.6174C98.0325 42.0507 98.1971 41.4953 98.5112 41.0226C98.8651 40.5128 99.3603 40.1167 99.9367 39.8828C100.676 39.582 101.472 39.4386 102.271 39.4616C102.909 39.4616 103.544 39.5424 104.161 39.7023C104.733 39.8425 105.276 40.078 105.769 40.3985L105.152 41.9215C104.7 41.6553 104.216 41.4487 103.711 41.3067C103.237 41.1697 102.748 41.0982 102.255 41.0944C101.656 41.0526 101.058 41.1897 100.538 41.4881C100.362 41.5995 100.218 41.7538 100.12 41.9363C100.021 42.1187 99.9716 42.3232 99.9749 42.5303C99.9707 42.6698 99.9974 42.8086 100.053 42.9365C100.109 43.0644 100.193 43.1785 100.299 43.2706C100.537 43.4751 100.815 43.6291 101.115 43.7235C101.446 43.8322 101.895 43.9602 102.464 44.1016C103.118 44.2445 103.761 44.4333 104.388 44.6664C104.881 44.8594 105.321 45.1679 105.669 45.5656C106.045 46.0235 106.234 46.6047 106.202 47.1951C106.207 47.7586 106.043 48.311 105.731 48.7809C105.374 49.2898 104.876 49.6835 104.298 49.9136C103.555 50.2136 102.758 50.357 101.957 50.3347C101.156 50.3381 100.359 50.2214 99.5929 49.9884L99.6009 49.9854ZM129.205 50.1821V41.2729H125.722V39.6123H134.639V41.2729H131.155V50.1821H129.205ZM121.204 50.1821V39.6123H123.161V50.1821H121.204ZM87.5576 50.1821V39.6123H95.2279V41.2523H89.5078V44.0023H94.5805V45.6166H89.5078V48.5317H95.439V50.1718L87.5576 50.1821ZM81.7913 50.1821L81.7752 43.1772L78.323 48.9746H77.4525L74.0023 43.2683V50.1831H72.1385V39.6133H73.747L77.9169 46.6181L82.0145 39.6133H83.6209L83.637 50.1831L81.7913 50.1821ZM62.4596 50.1821L61.4081 47.7344H56.1585L55.1231 50.1821H53.1105L57.8394 39.6123H59.7615L64.5024 50.1821H62.4596ZM56.818 46.1959H60.7647L58.7803 41.5762L56.818 46.1959ZM48.834 50.1821L48.8179 43.1772L45.3638 48.9746H44.4932L41.041 43.2683V50.1831H39.1793V39.6133H40.7877L44.9576 46.6181L49.0572 39.6133H50.6616L50.6777 50.1831L48.834 50.1821ZM31.1993 50.1821V41.2729H27.717V39.6123H36.6278V41.2729H33.1496V50.1821H31.1993ZM25.1314 50.1821L24.0819 47.7344H18.8323L17.7928 50.1821H15.7843L20.5091 39.6123H22.4312L27.1762 50.1821H25.1314ZM19.4918 46.1959H23.4385L21.4581 41.5762L19.4918 46.1959ZM121.412 38.2704C121.311 38.169 121.234 38.0483 121.182 37.9158C121.131 37.7833 121.105 37.6418 121.11 37.4997C121.105 37.3576 121.131 37.216 121.182 37.0835C121.234 36.951 121.312 36.8304 121.412 36.7289C121.511 36.6296 121.632 36.5517 121.763 36.5002C121.895 36.4487 122.034 36.4247 122.176 36.4296C122.317 36.425 122.46 36.449 122.592 36.5005C122.724 36.5519 122.843 36.6297 122.944 36.7289C123.042 36.8312 123.12 36.9522 123.171 37.0845C123.222 37.2169 123.246 37.358 123.241 37.4997C123.246 37.6414 123.222 37.7827 123.171 37.9151C123.12 38.0475 123.042 38.1682 122.944 38.2704C122.843 38.3696 122.724 38.4475 122.592 38.4989C122.46 38.5504 122.317 38.5744 122.176 38.5697C122.034 38.5757 121.892 38.5523 121.759 38.5012C121.627 38.45 121.508 38.3724 121.408 38.2727L121.412 38.2704ZM1.74646 34.3879C1.54779 34.3868 1.35759 34.3071 1.21768 34.1667C1.07778 34.0262 0.999995 33.8365 1.00054 33.6387C0.999866 33.5405 1.01969 33.4429 1.05684 33.3519C1.09399 33.2609 1.14837 33.1783 1.21768 33.1084C1.287 33.0385 1.37005 32.9829 1.46096 32.9447C1.55187 32.9066 1.64783 32.8867 1.74646 32.8862H9.35245C9.09185 32.7323 8.87705 32.5099 8.73521 32.2433C8.59336 31.9768 8.52972 31.6766 8.54822 31.3755C8.5719 29.1994 11.922 28.4942 11.922 28.4942L11.4354 27.7817C13.2883 27.014 15.6455 28.3342 15.6455 28.3342C10.2205 23.321 7.86262 23.977 7.86262 23.977C7.86142 23.973 7.86142 23.9685 7.86262 23.9645C7.61223 24.0079 7.36476 24.0652 7.12072 24.1359C7.48157 24.3299 7.79045 24.6071 8.02145 24.9444C9.00248 26.3794 8.33045 28.9647 6.42707 29.2086C3.74339 29.5489 2.84763 26.2299 4.28984 24.4167C5.05479 23.5432 6.09086 22.9489 7.23331 22.7275C6.94629 22.411 6.63063 22.1214 6.29035 21.8624C9.49491 21.0886 11.8237 23.2676 12.7543 24.3561C12.1856 23.3283 12.022 22.1262 12.2959 20.9848C12.2959 20.9848 12.4078 22.2087 14.3668 23.1732C15.7172 23.9399 16.8788 24.9979 17.7647 26.2697C17.7286 26.0415 17.7454 25.8081 17.817 25.5883C17.8885 25.3685 18.0111 25.1687 18.1748 25.005C18.8703 26.9905 20.2315 28.6768 22.0291 29.7804C19.0551 25.4693 20.0607 20.7183 22.4212 18.6898C23.1789 18.0362 24.0906 17.5842 25.0711 17.3758C25.614 17.2462 26.179 17.2323 26.7278 17.3345C27.2766 17.4368 27.7967 17.653 28.2558 17.9694C29.4426 18.8717 30.2277 20.2006 30.4433 21.6717C30.5616 22.3118 30.6124 22.9626 30.5941 23.6131C30.6018 24.2079 30.5196 24.8003 30.3508 25.3709C30.2631 24.5455 29.9125 23.77 29.3496 23.1579C28.9791 23.3187 28.5618 23.339 28.1774 23.2148C27.793 23.0905 27.4676 22.8304 27.2626 22.4835C27.6679 22.4489 28.0553 22.295 28.3724 22.0414C28.6896 21.7878 28.9225 21.446 29.044 21.0594C29.1654 20.6728 29.1695 20.2591 29.054 19.8707C28.9385 19.4824 28.7098 19.1369 28.3966 18.8785C27.8773 18.4017 27.2042 18.1231 26.4986 18.0918C25.793 18.0604 25.1001 18.2785 24.5403 18.7074C25.334 18.7699 25.8552 19.884 25.8552 19.884C25.3785 19.8111 24.8924 19.8836 24.4579 20.092C24.0233 20.3003 23.6624 20.635 23.4224 21.0516C23.6907 21.0098 23.9632 21.022 24.2266 21.0879C24.4901 21.1538 24.7379 21.2721 24.9545 21.4353C25.171 21.5985 25.352 21.8033 25.4873 22.0379C25.6225 22.2724 25.7102 22.5316 25.7426 22.8001C22.5319 21.3856 22.192 24.4852 22.192 24.4852C24.4896 23.162 25.1596 25.4314 25.1596 25.4314C23.9088 25.1239 22.5996 26.805 23.8205 29.0805C24.0913 29.7021 24.5458 30.227 25.1234 30.5854C25.7009 30.9439 26.3737 31.1191 27.0535 31.0874C23.6801 29.6207 24.3774 28.1681 24.3774 28.1681C24.3774 28.1681 24.6521 28.8394 25.7165 28.6303C26.2937 28.4932 26.8987 28.5349 27.4516 28.7494C28.4223 26.4944 29.9588 27.1166 29.9588 27.1166C28.8532 27.7008 28.1235 30.9899 33.3426 31.0627C38.5617 31.1354 39.5693 27.2076 39.5693 27.2076C38.8698 28.0256 37.9353 28.6095 36.8912 28.8803C35.8471 29.1511 34.744 29.0958 33.7326 28.7216C33.6583 28.6737 33.5749 28.6423 33.4873 28.6295C33.3997 28.6167 33.311 28.6227 33.226 28.6473C33.1409 28.6719 33.0618 28.7146 32.9947 28.7722C32.9277 28.8297 32.8729 28.9008 32.8359 28.9809C32.7482 28.8153 32.7004 28.6317 32.6972 28.4446C32.694 28.2575 32.7358 28.072 32.8178 27.9036C32.906 27.7787 32.9579 27.6324 32.9686 27.4802C32.9793 27.3279 32.948 27.1754 32.8781 27.0395C32.1396 26.2719 31.6589 25.2948 31.5029 24.2433C31.3469 23.1917 31.5235 22.1179 32.0076 21.1705C32.3051 20.5133 32.8057 19.9681 33.4371 19.6152C34.0684 19.2624 34.7976 19.1203 35.516 19.2096C35.4758 19.2034 35.3832 19.2568 35.3431 19.2722C34.3783 19.6303 33.5755 20.3213 33.0792 21.2196C32.9145 21.4717 32.8301 21.7677 32.8379 22.0684C32.9038 22.4241 33.346 22.2877 33.5858 22.2528C33.9938 22.1914 34.4102 22.2069 34.8123 22.2989C34.8802 22.3142 35.7856 22.6301 35.4778 22.709C34.5204 22.9458 33.316 25.5247 34.4484 26.0916C35.3594 26.5508 35.5803 24.3489 35.5803 24.3489C35.568 24.6113 36.0695 27.4364 38.2745 27.1166C39.8392 26.8952 40.4855 25.4211 40.7254 24.026C41.0253 22.2142 41.1954 20.3834 41.2341 18.5474C41.2553 17.8913 41.4333 17.2496 41.7528 16.6754C42.0723 16.1011 42.5243 15.6109 43.0717 15.245C43.2689 14.7245 43.6354 14.2849 44.1132 13.9965C44.5662 13.7073 45.1085 13.5897 45.6412 13.6649C46.174 13.7402 46.6621 14.0032 47.0165 14.4064C47.1695 14.5652 47.2818 14.7577 47.3462 14.9682C47.4106 15.1787 47.4246 15.4013 47.3864 15.6181C47.3482 15.8348 47.2596 16.0396 47.127 16.2157C46.9945 16.3918 46.8226 16.5345 46.6244 16.6318C46.4928 16.718 46.3448 16.7774 46.1901 16.8068C46.0354 16.8361 45.8759 16.8346 45.7216 16.8027C45.5674 16.7709 45.4216 16.7091 45.2914 16.6208C45.1612 16.5325 45.05 16.4197 44.9637 16.2885C44.8903 16.134 44.8474 15.9667 44.839 15.796C44.8306 15.6254 44.8556 15.4546 44.9134 15.2938C44.9712 15.1329 45.0615 14.9849 45.1768 14.8583C45.2921 14.7318 45.4298 14.629 45.5849 14.5561C44.4752 14.1717 43.3846 15.5331 43.7613 16.7477C43.7871 16.8225 43.8139 16.8941 43.8438 16.9699C43.8787 17.044 43.9165 17.1161 43.9604 17.1854C44.3877 17.6499 44.9635 17.9548 45.589 18.0497C46.2144 18.1446 46.8536 18.0236 47.4005 17.7069C47.8176 17.4332 48.1667 17.069 48.4218 16.6413C48.6769 16.2137 48.8304 15.7339 48.8722 15.2382C48.914 14.7426 48.843 14.2441 48.6631 13.78C48.4833 13.316 48.2001 12.8985 47.8348 12.5594C45.5606 12.736 43.3816 13.5509 41.5537 14.9096C40.0324 15.9686 38.89 17.4832 38.2926 19.2331C38.5904 19.1388 38.9104 19.137 39.2094 19.2274C39.5085 19.3178 39.7725 19.4964 39.9674 19.7396C40.2464 20.0768 40.3087 20.4171 40.2026 20.2766C38.6647 20.5841 37.6286 22.2087 37.3054 23.7913C37.471 23.6449 37.6743 23.5473 37.8925 23.5093C38.1106 23.4713 38.3342 23.4944 38.5399 23.5761C38.771 23.6609 38.9817 23.7926 39.1591 23.9627C39.3366 24.1329 39.4776 24.3378 39.5713 24.5646C39.6651 24.7914 39.7097 25.0351 39.704 25.2803C39.6983 25.5255 39.6414 25.7667 39.5371 25.989C39.4048 26.1756 39.2325 26.3305 39.0325 26.4424C38.8324 26.5543 38.61 26.6206 38.3811 26.6361C38.1521 26.6516 37.923 26.6159 37.7095 26.532C37.4961 26.4481 37.3051 26.3179 37.1486 26.1509C35.7753 24.8399 35.7581 22.2456 35.8095 20.4601C35.8289 18.336 36.4739 16.2641 37.6633 14.5008C37.4448 14.371 37.2631 14.1857 37.1405 13.9637C36.9678 13.6681 36.9184 13.3171 36.9998 12.9848C37.0812 12.6525 37.2888 12.3646 37.5788 12.1812C37.7303 12.0959 37.8964 12.0421 38.0694 12.0233C38.2424 12.0046 38.4178 12.0213 38.5841 12.0721C38.7505 12.123 38.9039 12.2069 39.0365 12.3191C39.1692 12.4313 39.2789 12.5693 39.3562 12.7245C39.5672 12.5462 39.8026 12.4088 40.0157 12.2345C42.6417 10.4398 45.713 9.95894 48.2268 11.5979C49.0777 11.5133 49.9337 11.4863 50.7883 11.5171C52.4616 11.6724 54.1472 11.4139 55.6961 10.7646C56.5629 10.3618 57.1178 9.77868 57.0211 9.25388C56.7956 8.22888 57.2676 7.68646 58.1148 7.98064C58.3299 8.05729 58.5086 8.21126 58.6154 8.41231C58.7223 8.61336 58.7512 8.847 58.6938 9.0672C58.5549 10.0973 56.8456 10.6713 55.4106 11.3519C57.9018 10.6867 61.4224 9.89742 63.6861 8.47062C64.775 7.80482 65.7172 6.9257 66.4547 5.8866C67.2627 4.73142 67.8658 3.08628 67.1061 1.74456C66.9723 1.50421 66.783 1.29937 66.5532 1.14722C66.3233 0.99508 66.0595 0.900307 65.7851 0.870453C65.9555 0.989887 66.1004 1.14157 66.2114 1.31714C66.3655 1.53318 66.4727 1.77867 66.527 2.03809C66.5814 2.29751 66.5815 2.56522 66.527 2.82461C66.4725 3.08399 66.3636 3.32937 66.2094 3.54531C66.0551 3.76126 65.8585 3.94321 65.6303 4.07958C65.4023 4.21262 65.1491 4.29607 64.8864 4.32457C64.6237 4.35308 64.3577 4.32602 64.1063 4.245C63.8549 4.16397 63.6228 4.03098 63.4267 3.85461C63.2306 3.67825 63.0748 3.46257 62.9683 3.22175C62.794 2.69458 62.8076 2.12363 63.0065 1.60517C63.2055 1.08671 63.5771 0.652335 64.0601 0.37522C64.496 0.106821 65.0013 -0.0283495 65.5137 -0.013409C66.0261 0.00153153 66.5238 0.165958 66.9432 0.459302C67.1939 0.649728 67.4075 0.884663 67.5725 1.15223C69.4605 4.1401 66.68 7.81466 64.1425 9.25889C62.0773 10.374 59.8565 11.1768 57.5539 11.641C58.6378 11.5877 59.723 11.519 60.8049 11.4258C62.6952 11.1378 64.6075 11.0208 66.519 11.0762L66.5733 11.0702L66.5914 11.0854C67.3742 11.1136 68.138 11.3356 68.813 11.7313C69.4881 12.127 70.053 12.6838 70.4577 13.3516C70.8625 12.6844 71.4277 12.1279 72.1023 11.7323C72.7769 11.3367 73.5396 11.1144 74.322 11.0854L74.3441 11.0702L74.4004 11.0762C76.3105 11.0207 78.2216 11.1378 80.1104 11.4258C81.1944 11.519 82.2776 11.5887 83.3615 11.641C81.0588 11.1771 78.838 10.3743 76.7729 9.25889C74.2354 7.81056 71.4529 4.1401 73.3429 1.15223C73.5083 0.88564 73.7211 0.650897 73.9702 0.459302C74.3898 0.166334 74.8854 0.00227967 75.3977 -0.0126583C75.9099 -0.0275962 76.4152 0.107205 76.8513 0.37522C77.3349 0.651737 77.7095 1.08609 77.9089 1.60467C78.1082 2.12325 78.1216 2.69438 77.9471 3.22175C77.84 3.4623 77.683 3.67752 77.4866 3.85361C77.2903 4.02971 77.0585 4.16253 76.8071 4.24349C76.5556 4.32446 76.2897 4.35183 76.027 4.32357C75.7643 4.29531 75.5113 4.21215 75.2831 4.07958C75.0552 3.94285 74.8579 3.76088 74.704 3.54481C74.5501 3.32874 74.4426 3.08318 74.3884 2.82386C74.3341 2.56454 74.3339 2.29685 74.3884 2.03759C74.4429 1.77833 74.5499 1.53304 74.704 1.31714C74.8129 1.14132 74.9567 0.989506 75.1262 0.870453C74.8517 0.899557 74.5881 0.994001 74.3582 1.14622C74.1283 1.29844 73.9385 1.50372 73.8053 1.74456C73.0435 3.08731 73.6526 4.73245 74.4627 5.8866C75.1986 6.92707 76.1391 7.80647 77.2293 8.47062C79.494 9.89742 83.0096 10.6877 85.5028 11.3519C84.0616 10.6713 82.3555 10.0973 82.2155 9.0672C82.1608 8.84708 82.1894 8.61472 82.2959 8.41431C82.4025 8.2139 82.581 8.05942 82.7945 7.98064C83.6428 7.68749 84.1158 8.22683 83.8883 9.25388C83.7977 9.77868 84.3465 10.3618 85.2133 10.7646C86.7628 11.4142 88.4511 11.6727 90.1251 11.5171C90.979 11.4879 91.8322 11.5148 92.6825 11.5979C95.1953 9.95792 98.2697 10.4398 100.896 12.2345C101.111 12.4088 101.344 12.5421 101.555 12.7245C101.633 12.5695 101.74 12.4316 101.873 12.3196C102.006 12.2076 102.161 12.1237 102.327 12.0729C102.494 12.0221 102.667 12.0055 102.84 12.0241C103.013 12.0427 103.181 12.0962 103.333 12.1812C103.624 12.3637 103.832 12.6518 103.914 12.9845C103.995 13.3172 103.943 13.6684 103.769 13.9637C103.648 14.1852 103.471 14.3706 103.254 14.5008C104.443 16.2644 105.088 18.3361 105.108 20.4601C105.16 22.2456 105.139 24.8389 103.769 26.1509C103.612 26.3179 103.421 26.4481 103.208 26.532C102.994 26.6159 102.763 26.6516 102.534 26.6361C102.305 26.6206 102.083 26.5543 101.883 26.4424C101.683 26.3305 101.511 26.1756 101.378 25.989C101.274 25.7668 101.219 25.5258 101.213 25.2808C101.208 25.0358 101.253 24.7923 101.346 24.5656C101.44 24.3389 101.579 24.1338 101.756 23.9635C101.933 23.7932 102.143 23.6613 102.373 23.5761C102.579 23.4948 102.805 23.4718 103.023 23.5098C103.241 23.5478 103.444 23.6452 103.61 23.7913C103.285 22.2087 102.251 20.579 100.711 20.2766C100.608 20.4171 100.664 20.0715 100.944 19.7364C101.139 19.4938 101.405 19.316 101.704 19.2264C102.003 19.1367 102.321 19.1394 102.619 19.2341C102.024 17.4827 100.881 15.9675 99.3576 14.9109C97.5299 13.5518 95.3529 12.7366 93.0786 12.5604C92.7138 12.8996 92.43 13.3168 92.2503 13.7805C92.0705 14.2443 91.9997 14.7426 92.0412 15.238C92.0826 15.7333 92.2353 16.2131 92.4895 16.6408C92.7438 17.0686 93.0927 17.4333 93.5089 17.7079C94.5681 18.3229 96.3437 18.1478 96.949 17.1864C96.9957 17.1181 97.0368 17.0459 97.0716 16.9709C97.0973 16.8961 97.1283 16.8245 97.154 16.7487C97.5277 15.5341 96.433 14.1737 95.3284 14.5571C95.4832 14.6304 95.6218 14.7336 95.7366 14.8604C95.8514 14.9871 95.9406 15.1349 95.998 15.2958C96.0553 15.4566 96.0812 15.6273 96.0723 15.7978C96.0635 15.9682 96.0194 16.1354 95.9457 16.2895C95.8592 16.4208 95.7483 16.5338 95.618 16.6221C95.4876 16.7104 95.3421 16.7721 95.1877 16.804C95.0333 16.8359 94.8741 16.8371 94.7192 16.8078C94.5644 16.7784 94.4167 16.719 94.285 16.6328C94.0869 16.5352 93.9146 16.3925 93.7823 16.2162C93.6501 16.0399 93.5608 15.8349 93.5229 15.6181C93.4851 15.4013 93.4983 15.1788 93.5632 14.9685C93.628 14.7581 93.7435 14.5658 93.8969 14.4074C94.2518 14.0044 94.7392 13.7414 95.2721 13.6662C95.8051 13.591 96.3468 13.7086 96.8002 13.9975C97.2758 14.2873 97.6427 14.7266 97.8396 15.246C98.3871 15.612 98.8387 16.1022 99.1586 16.6764C99.4784 17.2506 99.6554 17.8922 99.6773 18.5485C99.7133 20.3844 99.8828 22.2154 100.184 24.027C100.423 25.4221 101.068 26.8972 102.633 27.1176C104.842 27.4333 105.344 24.6084 105.325 24.3501C105.325 24.3501 105.555 26.5477 106.463 26.0926C107.595 25.5216 106.391 22.9427 105.434 22.71C105.132 22.6352 106.033 22.3196 106.101 22.3001C106.503 22.2082 106.92 22.1924 107.328 22.2538C107.566 22.2887 108.004 22.4251 108.073 22.0694C108.084 21.769 108.001 21.4727 107.836 21.2206C107.34 20.3225 106.537 19.6316 105.572 19.2732C105.53 19.2578 105.438 19.2044 105.397 19.2106C106.116 19.1211 106.843 19.2633 107.474 19.6162C108.106 19.9691 108.608 20.5142 108.906 21.1715C109.39 22.1189 109.564 23.1927 109.408 24.2443C109.252 25.2958 108.772 26.2732 108.033 27.0407C107.964 27.177 107.935 27.3294 107.947 27.4817C107.958 27.6339 108.011 27.7803 108.1 27.9048C108.182 28.0734 108.222 28.2586 108.218 28.4459C108.214 28.6331 108.166 28.8167 108.077 28.9819C108.041 28.9012 107.987 28.8295 107.921 28.7714C107.854 28.7134 107.775 28.6705 107.689 28.6458C107.604 28.6211 107.516 28.6153 107.428 28.6285C107.34 28.6418 107.257 28.6739 107.183 28.7226C106.171 29.0968 105.068 29.1521 104.024 28.8813C102.98 28.6105 102.046 28.0266 101.346 27.2086C101.346 27.2086 102.352 31.1354 107.573 31.0637C112.794 30.9919 112.062 27.7018 110.957 27.1176C110.957 27.1176 112.492 26.4964 113.464 28.7504C114.018 28.5359 114.625 28.4945 115.203 28.6315C116.266 28.8365 116.542 28.1691 116.542 28.1691C116.542 28.1691 117.236 29.6217 113.864 31.0884C114.543 31.1199 115.217 30.9447 115.794 30.5862C116.371 30.2277 116.826 29.703 117.097 29.0815C118.316 26.806 117.003 25.1259 115.758 25.4324C115.758 25.4324 116.429 23.163 118.725 24.4862C118.725 24.4862 118.384 21.3869 115.171 22.8013C115.204 22.5326 115.29 22.273 115.426 22.0384C115.562 21.8037 115.744 21.599 115.961 21.4358C116.178 21.2726 116.425 21.1545 116.689 21.0887C116.952 21.0229 117.226 21.0106 117.495 21.0526C117.255 20.6365 116.896 20.3023 116.462 20.094C116.027 19.8856 115.539 19.8126 115.062 19.885C115.062 19.885 115.577 18.7709 116.373 18.7084C115.814 18.2794 115.12 18.0614 114.415 18.0928C113.709 18.1241 113.038 18.4027 112.519 18.8795C112.206 19.1379 111.977 19.4834 111.861 19.8717C111.746 20.2601 111.75 20.6738 111.871 21.0604C111.993 21.447 112.226 21.7888 112.543 22.0424C112.86 22.296 113.245 22.4499 113.651 22.4845C113.446 22.8314 113.12 23.0915 112.736 23.2158C112.352 23.34 111.936 23.3197 111.566 23.1589C111.003 23.7709 110.651 24.5466 110.565 25.3719C110.398 24.8007 110.317 24.2088 110.321 23.6141C110.306 22.9636 110.355 22.3132 110.47 21.6727C110.686 20.2016 111.471 18.8727 112.658 17.9704C113.117 17.6542 113.639 17.438 114.188 17.3358C114.736 17.2335 115.299 17.2474 115.842 17.3768C116.823 17.5856 117.735 18.0378 118.494 18.6911C120.857 20.7196 121.858 25.4713 118.88 29.7814C120.681 28.6803 122.044 26.9932 122.739 25.006C122.903 25.1694 123.027 25.3692 123.098 25.5891C123.17 25.8089 123.187 26.0425 123.151 26.2707C124.037 24.9991 125.198 23.9411 126.549 23.1742C128.511 22.2097 128.621 20.9861 128.621 20.9861C128.899 22.1275 128.734 23.3309 128.161 24.3571C129.094 23.2686 131.423 21.0896 134.625 21.8634C134.285 22.1229 133.97 22.4125 133.682 22.7285C134.826 22.95 135.864 23.5442 136.632 24.4177C138.073 26.2309 137.174 29.5499 134.49 29.2096C132.59 28.9657 131.917 26.3784 132.896 24.9454C133.128 24.6094 133.437 24.3326 133.797 24.1369C133.552 24.0658 133.304 24.0087 133.053 23.9657C133.053 23.9698 133.053 23.9739 133.053 23.978C133.053 23.978 130.695 23.323 125.27 28.3352C125.27 28.3352 127.63 27.015 129.482 27.7827L128.991 28.4952C128.991 28.4952 132.345 29.2004 132.369 31.3765C132.388 31.6781 132.323 31.9791 132.18 32.2458C132.038 32.5126 131.823 32.7345 131.561 32.8872H138.274C138.474 32.8885 138.665 32.9684 138.805 33.1094C138.945 33.2504 139.023 33.4412 139.022 33.6397C139.022 33.8376 138.943 34.0273 138.803 34.1677C138.663 34.308 138.473 34.3876 138.274 34.3889L1.74646 34.3879ZM124.041 30.3422C124.423 30.4855 124.747 30.7493 124.964 31.0932C125.181 31.4371 125.278 31.8421 125.242 32.2466C125.212 32.4673 125.152 32.6827 125.061 32.8862H129.981C129.786 32.7484 129.633 32.5587 129.542 32.3389C129.451 32.1191 129.426 31.8783 129.466 31.644C129.466 31.644 130.326 32.019 130.453 31.114C130.54 30.499 129.991 29.7814 127.97 29.7814C126.642 29.8177 125.322 30.0053 124.037 30.3402L124.041 30.3422ZM115.838 32.6269C115.529 32.7212 115.18 32.8083 114.809 32.8862H124.019C123.942 32.6673 123.812 32.4703 123.641 32.3121C123.471 32.154 123.265 32.0393 123.04 31.9781C122.423 31.7813 121.776 31.6905 121.128 31.7095C119.329 31.7653 117.546 32.0748 115.834 32.6289L115.838 32.6269ZM84.4613 32.0436C84.1653 32.3739 83.8208 32.6579 83.4399 32.8862H107.022C105.871 32.6407 104.78 32.1685 103.815 31.4973C102.485 30.5122 101.373 29.2648 100.548 27.833C100.522 28.2078 100.38 28.5654 100.14 28.8553C99.8997 29.1452 99.5755 29.3528 99.2109 29.4493C99.0208 29.4921 98.8232 29.4953 98.6318 29.4588C98.4405 29.4224 98.2578 29.347 98.097 29.2374C97.9362 29.1278 97.8003 28.9864 97.6969 28.822C97.5935 28.6576 97.5266 28.4738 97.4978 28.2819C97.329 27.4394 98.2168 26.8869 98.9374 26.9494C99.0767 26.9607 99.2122 27.0024 99.3335 27.0715C99.4548 27.1406 99.5607 27.2352 99.6411 27.349C99.6204 27.1722 99.5799 26.9984 99.5205 26.8305C99.1149 25.9623 98.5375 25.1843 97.8236 24.5428C97.05 23.9236 96.1729 23.4455 95.2319 23.1312C93.379 22.51 90.9455 22.5726 89.6968 24.2926C89.4371 24.6516 89.2833 25.0762 89.2545 25.5177C89.2257 25.9593 89.323 26.4 89.534 26.7895C89.6355 26.9609 89.7654 27.114 89.918 27.2424C89.9141 26.7677 90.023 26.2989 90.2357 25.8741C90.4484 25.4493 90.7574 25.0807 91.1404 24.798C91.3437 24.6663 91.5738 24.5806 91.814 24.5471C92.0541 24.5135 92.2999 24.5327 92.5317 24.6036C92.7635 24.6745 92.9772 24.7952 93.157 24.9572C93.3369 25.1192 93.4772 25.3184 93.5712 25.541C93.7482 26.0338 93.7452 26.573 93.5611 27.0633C93.3771 27.5535 93.0242 27.9631 92.5659 28.2194C92.1594 28.4615 91.7 28.6001 91.2269 28.623C90.7538 28.6459 90.2818 28.5522 89.8537 28.3505C89.4218 28.1303 89.0532 27.8047 88.782 27.4041C88.5109 27.0034 88.3463 26.541 88.3035 26.0598C88.2594 25.7024 88.2769 25.3399 88.3558 24.9885C88.1056 25.1143 87.8446 25.2173 87.5757 25.296C86.633 25.5741 85.6309 25.5809 84.6845 25.3156C85.3485 26.3234 85.6821 27.5112 85.6415 28.7159C85.601 29.9206 85.1876 31.0833 84.4573 32.0446L84.4613 32.0436ZM78.8518 30.5266C78.5801 31.2072 79.1368 31.8847 79.6299 32.2906C80.0347 32.643 80.545 32.8527 81.0815 32.8872H81.4052C81.5392 32.879 81.672 32.8612 81.8033 32.8339C81.4999 32.8373 81.2044 32.7432 80.9589 32.5656C80.7134 32.388 80.5307 32.1363 80.4402 31.8479C80.4081 31.729 80.4019 31.6046 80.4201 31.4828C80.4383 31.361 80.4813 31.2442 80.5467 31.1397C80.6122 31.0352 80.6982 30.9453 80.8001 30.8755C80.9019 30.8056 81.0164 30.7572 81.1378 30.7336C81.3437 31.5669 82.6673 31.155 83.4198 30.0654C84.4976 28.5013 83.3675 26.2289 82.4688 26.2637C81.8512 26.2853 81.7365 26.7761 82.0165 27.1348C81.3494 26.7792 81.3586 26.3796 81.2886 25.739C81.2186 25.1363 80.7956 24.9619 80.5568 24.475C80.5035 24.2941 80.4183 24.1241 80.3055 23.9727C80.3481 24.1377 80.3437 24.3114 80.2934 24.4742C80.2431 24.6371 80.1484 24.7828 80.02 24.8954C79.9411 24.9398 79.8547 24.9678 79.7646 24.9777C79.6746 24.9876 79.5819 24.979 79.4952 24.9527C79.4085 24.9264 79.3292 24.883 79.26 24.8248C79.1907 24.7667 79.1337 24.695 79.0931 24.6144C79.3741 24.8081 79.7618 24.3398 79.7103 23.981C79.5333 22.7572 78.2487 22.7951 77.3017 22.9325C76.6045 23.0103 75.9327 23.2349 75.3293 23.5911C74.7259 23.9474 74.2043 24.4271 73.8013 24.9987C73.6925 25.1741 73.6006 25.3591 73.5258 25.5513C73.3122 26.0369 73.2331 26.5704 73.2946 27.097C73.3561 27.6237 73.5559 28.1246 73.8757 28.5485C74.0098 28.7156 74.1646 28.8655 74.3361 28.9944C74.2959 28.9257 74.2554 28.8539 74.2215 28.7822C74.0382 28.3438 73.9959 27.8598 74.0988 27.3961C74.2018 26.9324 74.4446 26.5115 74.7965 26.1909C75.1529 25.8797 75.6008 25.6909 76.0732 25.6521C76.5457 25.6134 77.0195 25.7268 77.4223 25.9757C77.6872 26.1277 77.9131 26.3371 78.0858 26.5883C78.2585 26.8395 78.3732 27.1262 78.4195 27.4271C78.7973 27.2078 79.2321 27.108 79.6681 27.1413C80.1041 27.1747 80.5207 27.3394 80.8604 27.6135C81.1295 27.8198 81.3132 28.1158 81.3811 28.4471C81.449 28.7784 81.3948 29.1229 81.2283 29.4176C80.9493 29.7702 80.311 30.2479 79.9476 29.7456C80.2029 29.7958 80.4627 29.0772 79.9315 29.0464C79.7196 29.0318 79.5101 29.0921 79.3384 29.2166C79.1667 29.3411 79.0436 29.5218 78.9926 29.7271C79.3951 29.2966 79.9516 29.5426 79.8672 30.2293C79.8085 30.0377 79.6934 29.9618 79.5575 29.9618C79.4021 29.9905 79.2564 30.0573 79.1333 30.156C79.0102 30.2548 78.913 30.3815 78.8518 30.5266ZM62.345 32.7816C62.3028 32.8195 62.2546 32.8504 62.2103 32.8842H78.6266C78.5803 32.8493 78.5342 32.8185 78.4899 32.7816C77.6832 32.1308 77.163 31.1923 77.0403 30.1658C76.9374 30.2191 76.8267 30.2684 76.7166 30.3124C76.2313 30.4633 75.7178 30.4972 75.2167 30.4115C74.7156 30.3258 74.2424 30.1229 73.8354 29.8194C73.4116 29.5104 73.0561 29.1166 72.794 28.6633C72.5318 28.2101 72.3672 27.7072 72.3114 27.1871C72.0222 24.4617 74.5761 22.6638 76.3869 21.112C77.1113 20.5323 77.7167 19.8175 78.1662 19.0076C77.5086 19.2686 76.7945 19.355 76.0933 19.2579C76.7406 18.8361 77.2461 18.2309 77.545 17.5204C77.8438 16.81 77.9223 16.0267 77.7701 15.2715C77.6201 14.4926 77.2465 13.7737 76.6945 13.202C76.3076 12.8011 75.8277 12.5009 75.2971 12.3276C74.7666 12.1544 74.2007 12.1136 73.6505 12.2085C73.1003 12.3034 72.5817 12.5313 72.1405 12.8722C71.6994 13.213 71.3501 13.6565 71.1212 14.1637C70.9316 14.6011 70.8903 15.0881 71.0046 15.5508C71.1189 16.0134 71.3808 16.4262 71.7525 16.7262C72.144 17.0366 72.6356 17.1969 73.1358 17.1781C73.6359 17.1593 74.1119 16.9626 74.4788 16.6236C74.6904 16.4109 74.8478 16.1508 74.9372 15.8651C74.8107 16.0462 74.6478 16.199 74.4587 16.314C74.2501 16.4329 74.0172 16.5016 73.7771 16.5147C73.5371 16.5278 73.2959 16.4848 73.0755 16.3893C72.855 16.2939 72.6605 16.1484 72.5065 15.9647C72.3524 15.781 72.2438 15.5641 72.1888 15.3311C72.1388 15.0969 72.1363 14.855 72.1828 14.6201C72.2292 14.3852 72.3248 14.162 72.4602 13.9642C72.5957 13.7664 72.7683 13.5981 72.9709 13.4692C73.1735 13.3404 73.4012 13.2537 73.6384 13.2145C74.1293 13.155 74.625 13.2712 75.0378 13.5423C75.4506 13.8134 75.754 14.2217 75.8923 14.6944C76.0073 15.1374 76.0062 15.602 75.8923 16.0453C75.7783 16.4885 75.5554 16.896 75.2408 17.2294C74.8895 17.5929 74.4514 17.8628 73.9681 18.0144C73.4849 18.1661 72.9715 18.1946 72.4743 18.0975C72.0519 18.0261 71.6507 17.8618 71.3001 17.6165C70.9495 17.3713 70.6584 17.0513 70.4476 16.6799C70.2368 17.0513 69.9458 17.3713 69.5952 17.6165C69.2445 17.8618 68.8434 18.0261 68.421 18.0975C67.924 18.1957 67.4084 18.1677 66.9251 18.0159C66.4419 17.8642 66.005 17.5937 65.6544 17.2294C65.3388 16.8966 65.1133 16.4894 64.999 16.046C64.8847 15.6026 64.8854 15.1375 65.001 14.6944C65.1388 14.221 65.4421 13.8118 65.8555 13.5406C66.2689 13.2693 66.7656 13.1538 67.2569 13.2145C67.4939 13.254 67.72 13.3408 67.9224 13.4697C68.1248 13.5987 68.2998 13.7672 68.4351 13.965C68.5703 14.1628 68.6642 14.3858 68.7105 14.6206C68.7569 14.8554 68.7545 15.097 68.7045 15.3311C68.6495 15.5641 68.5409 15.781 68.3868 15.9647C68.2328 16.1484 68.0382 16.2939 67.8178 16.3893C67.5974 16.4848 67.3561 16.5278 67.1161 16.5147C66.8761 16.5016 66.6432 16.4329 66.4345 16.314C66.2444 16.1996 66.0808 16.0467 65.954 15.8651C66.0451 16.1496 66.2015 16.4093 66.4104 16.6236C66.7777 16.9625 67.255 17.1593 67.7555 17.1781C68.2559 17.1969 68.7448 17.0366 69.1367 16.7262C69.5083 16.4261 69.7728 16.0132 69.8867 15.5505C70.0006 15.0879 69.958 14.6009 69.7681 14.1637C69.5398 13.6568 69.1913 13.2132 68.7507 12.8724C68.3102 12.5316 67.7925 12.304 67.2428 12.209C66.6931 12.1141 66.1283 12.155 65.5981 12.3281C65.068 12.5013 64.5872 12.8012 64.2008 13.202C63.6451 13.7716 63.2698 14.4913 63.1211 15.2715C62.969 16.0265 63.0478 16.8096 63.3463 17.5199C63.6448 18.2303 64.1492 18.8357 64.7959 19.2579C64.062 19.3603 63.3143 19.2587 62.6346 18.9646C63.0835 19.7955 63.6962 20.5277 64.436 21.1172C65.6046 22.0026 66.6684 23.0173 67.6067 24.1419C68.2855 25.0078 68.6082 26.0983 68.5095 27.1924C68.4541 27.7121 68.2904 28.2146 68.0289 28.6678C67.7675 29.121 67.4145 29.5149 66.9915 29.8245C66.5841 30.1272 66.1112 30.3298 65.6102 30.4155C65.1093 30.5012 64.5938 30.4675 64.1083 30.3174C63.9975 30.274 63.8905 30.2253 63.7846 30.171C63.6632 31.1958 63.1446 32.1333 62.341 32.7848L62.345 32.7816ZM60.3988 31.8449C60.3074 32.1336 60.1263 32.3853 59.8801 32.5629C59.6339 32.7404 59.3356 32.8343 59.0316 32.8309C59.1644 32.8579 59.2985 32.8757 59.4337 32.8842H59.7574C60.2948 32.8481 60.8059 32.6386 61.2131 32.2876C61.7 31.8776 62.259 31.2042 61.9851 30.5236C61.8184 30.1136 61.1408 29.6524 60.9638 30.2243C60.8835 29.5376 61.4359 29.2906 61.8364 29.7221C61.7852 29.5164 61.6627 29.3354 61.4906 29.2109C61.3184 29.0863 61.1077 29.0263 60.8954 29.0414C60.3704 29.0732 60.6281 29.7906 60.8834 29.7404C60.5189 30.2426 59.8775 29.7652 59.6006 29.4125C59.436 29.1174 59.3821 28.7734 59.4498 28.4426C59.5176 28.1118 59.703 27.8159 59.9706 27.6085C60.3103 27.3345 60.7249 27.1699 61.1608 27.1366C61.5968 27.1033 62.0336 27.2027 62.4114 27.4219C62.4582 27.1211 62.5705 26.8347 62.7431 26.5835C62.9158 26.3324 63.144 26.1228 63.4086 25.9704C63.8118 25.7215 64.283 25.6081 64.7557 25.6469C65.2285 25.6856 65.6776 25.8747 66.0344 26.1859C66.3861 26.5066 66.6298 26.9275 66.7321 27.3913C66.8344 27.8551 66.7898 28.339 66.6054 28.7769C66.5719 28.85 66.5334 28.9209 66.4908 28.9891C66.665 28.8619 66.8213 28.7119 66.9553 28.5432C68.9956 25.9869 65.9679 23.2829 63.5313 22.9272C62.5883 22.7899 61.3017 22.7521 61.1246 23.976C61.0762 24.3347 61.4619 24.8031 61.7419 24.6094C61.7017 24.6897 61.6458 24.761 61.577 24.8191C61.5082 24.8771 61.428 24.9207 61.3418 24.9469C61.2556 24.9732 61.166 24.9817 61.0764 24.972C60.9868 24.9622 60.8995 24.9343 60.821 24.8901C60.6915 24.7784 60.596 24.6328 60.5456 24.4697C60.4952 24.3066 60.4915 24.1327 60.5355 23.9677C60.4199 24.1179 60.3333 24.2882 60.2802 24.47C60.0434 24.9569 59.6203 25.132 59.5504 25.7337C59.4762 26.3743 59.4896 26.7731 58.8225 27.1298C59.1005 26.7711 58.9909 26.28 58.3681 26.2585C57.4715 26.2246 56.3372 28.4971 57.4191 30.0602C58.1706 31.1498 59.4943 31.5619 59.6991 30.7286C59.821 30.7522 59.9368 30.8007 60.0389 30.871C60.141 30.9412 60.229 31.0319 60.2943 31.137C60.3595 31.2421 60.4014 31.3595 60.4189 31.4818C60.4364 31.6042 60.428 31.7289 60.3948 31.8479L60.3988 31.8449ZM37.0883 31.4953C36.1229 32.1661 35.0324 32.6383 33.8814 32.8842H57.395C57.0154 32.6558 56.6722 32.3718 56.3777 32.0416C55.6481 31.0833 55.2329 29.9241 55.1894 28.7224C55.1459 27.5206 55.476 26.3349 56.1344 25.3268C55.2119 25.5717 54.2411 25.5587 53.3256 25.289C53.0567 25.2102 52.7957 25.1073 52.5455 24.9815C52.6254 25.3328 52.643 25.6952 52.5978 26.0525C52.5538 26.5334 52.3883 26.9954 52.1173 27.3958C51.8463 27.7963 51.4787 28.1223 51.0476 28.3435C50.619 28.5449 50.1458 28.6382 49.6724 28.6153C49.1991 28.5924 48.7384 28.4539 48.3314 28.2121C47.8741 27.9549 47.5234 27.5451 47.3402 27.055C47.1569 26.5649 47.1532 26.0261 47.3301 25.5338C47.4239 25.3111 47.5665 25.1118 47.7463 24.9497C47.9261 24.7876 48.1397 24.6667 48.3716 24.5958C48.6034 24.525 48.8472 24.5056 49.0873 24.5393C49.3275 24.573 49.5577 24.6589 49.7609 24.7908C50.1427 25.0743 50.4519 25.4434 50.6636 25.8681C50.8754 26.2928 50.9833 26.7612 50.9793 27.2354C51.1343 27.1082 51.2656 26.9547 51.3673 26.7822C51.5767 26.3924 51.6732 25.9521 51.6448 25.511C51.6164 25.0698 51.4641 24.6456 51.2065 24.2855C49.9537 22.5656 47.5233 22.503 45.6714 23.1242C44.7301 23.4363 43.8532 23.9144 43.0818 24.5355C42.366 25.1764 41.7872 25.9544 41.3808 26.8233C41.3196 26.9906 41.2789 27.1649 41.2602 27.342C41.3404 27.2284 41.4448 27.1336 41.5658 27.0645C41.6868 26.9954 41.8229 26.9537 41.9619 26.9421C42.6825 26.8796 43.5703 27.4321 43.4015 28.2747C43.3731 28.4665 43.3055 28.6505 43.2024 28.815C43.0993 28.9795 42.9629 29.121 42.8023 29.2306C42.6417 29.3402 42.4608 29.4157 42.2695 29.4521C42.0782 29.4885 41.8824 29.4852 41.6925 29.4423C41.3277 29.3461 41.0016 29.1382 40.7616 28.8482C40.5215 28.5583 40.3787 28.2007 40.3534 27.8258C39.5277 29.26 38.4151 30.51 37.0842 31.4983L37.0883 31.4953ZM17.8552 31.9761C17.6312 32.0384 17.424 32.1533 17.254 32.3114C17.084 32.4694 16.9559 32.666 16.878 32.8842H26.0884C25.7209 32.8063 25.377 32.7192 25.0651 32.6249C23.3524 32.0692 21.5676 31.7585 19.7672 31.7023C19.1171 31.6859 18.4696 31.7798 17.8511 31.9801L17.8552 31.9761ZM10.9207 32.8842H15.8406C15.7486 32.6813 15.6884 32.4656 15.6616 32.2446C15.6256 31.8399 15.722 31.4346 15.9391 31.0907C16.1562 30.7468 16.4821 30.4833 16.8639 30.3402C11.5666 29.0795 10.3215 30.2028 10.4502 31.111C10.5789 32.0191 11.4394 31.6407 11.4394 31.6407C11.4798 31.8766 11.4516 32.1191 11.359 32.3399C11.2664 32.5607 11.1135 32.7509 10.9167 32.8882L10.9207 32.8842ZM94.8117 22.0111C94.961 22.0459 95.1068 22.0826 95.2541 22.1267C96.7954 22.5675 98.1903 23.4101 99.2953 24.5673C99.0145 22.7894 98.8547 20.9947 98.8168 19.1953C98.8044 19.0201 98.791 18.8458 98.7766 18.6736C98.7509 18.1937 98.6308 17.7234 98.4227 17.2897C97.4355 19.3315 94.8914 19.1471 94.0216 18.7074C94.2029 19.8274 94.4654 20.9329 94.8077 22.0151L94.8117 22.0111ZM42.1247 18.6746C42.1083 18.8457 42.0969 19.0211 42.0845 19.1963C42.0463 20.9956 41.8872 22.7903 41.608 24.5683C42.7119 23.4107 44.1063 22.568 45.6473 22.1277C45.7945 22.0836 45.9423 22.0469 46.0936 22.0121C46.4347 20.9314 46.6972 19.8275 46.8797 18.7094C46.1024 19.0747 45.2146 19.1316 44.3967 18.8683C43.5788 18.6049 42.8919 18.0413 42.4766 17.292C42.2683 17.7267 42.1476 18.1976 42.1207 18.6786L42.1247 18.6746ZM85.5571 16.1306C84.7922 16.3435 84.1267 16.8172 83.6772 17.4691C83.2095 18.1271 82.9108 18.889 82.8066 19.6883C82.7397 20.169 82.7534 20.6572 82.8468 21.1335C83.0357 21.9598 83.4869 22.7044 84.1316 23.2578C84.7762 23.8112 85.581 24.1442 86.4297 24.2085C86.9195 24.259 87.4151 24.2004 87.8793 24.0368C88.3435 23.8732 88.765 23.6087 89.1138 23.2626C89.5198 22.836 89.7804 22.2929 89.8597 21.7105C89.9116 21.3029 89.8648 20.8889 89.723 20.5031C89.5415 20.0361 89.2049 19.6446 88.77 19.3933C88.335 19.1419 87.8276 19.0458 87.3304 19.1205C87.0763 19.1664 86.837 19.269 86.6287 19.4211C86.4204 19.5731 86.2485 19.7704 86.1281 19.9979C86.0612 20.1346 86.0165 20.281 85.9954 20.4315C85.9689 20.6172 85.9823 20.8062 86.0356 20.9861C86.0889 21.1659 86.1815 21.3322 86.305 21.4738C86.3859 21.5821 86.4991 21.662 86.6287 21.7018C86.7583 21.7416 86.8966 21.7394 87.0248 21.6953C87.0818 21.6752 87.1323 21.6418 87.1736 21.5977C87.2148 21.5536 87.2459 21.5001 87.262 21.442C87.2629 21.3472 87.2318 21.2549 87.1736 21.1798C87.155 21.148 87.1338 21.1142 87.1153 21.0834C87.0546 20.9558 87.0306 20.8136 87.0469 20.6733C87.06 20.5732 87.0992 20.4784 87.1615 20.3988C87.2238 20.3191 87.3065 20.2575 87.4008 20.2203C87.5286 20.1688 87.6681 20.1511 87.8049 20.169C87.9417 20.187 88.0708 20.2399 88.1809 20.3227C88.3727 20.4611 88.5228 20.6483 88.6172 20.8647C88.7115 21.0811 88.7471 21.3188 88.7177 21.5529C88.6836 21.8276 88.5531 22.0815 88.3498 22.2703C88.1163 22.4872 87.8228 22.6293 87.5073 22.6782C87.1919 22.7272 86.8692 22.6809 86.5805 22.5451C86.05 22.3427 85.6195 21.9414 85.3822 21.4275C85.1448 20.9136 85.1189 20.3277 85.3098 19.7949C85.5766 19.2792 85.9746 18.8421 86.4638 18.5272C86.9531 18.2123 87.5166 18.0307 88.0984 18.0002C88.8901 17.9139 89.6909 17.9774 90.4588 18.1876C90.9416 18.3188 92.3342 18.7003 92.5699 19.1933C92.047 18.0945 91.5402 16.8767 91.2952 16.1684C91.2567 16.0655 91.2246 15.9605 91.1987 15.8538C91.0794 16.1767 90.8643 16.4557 90.5815 16.6534C90.4201 16.7821 90.2354 16.8775 90.0366 16.9344C89.8379 16.9912 89.6288 17.0083 89.4234 16.9844C89.218 16.9606 89.0186 16.8963 88.8383 16.7955C88.658 16.6947 88.5012 16.5593 88.3739 16.3971C88.1496 16.0407 88.0642 15.6143 88.1366 15.1999C88.209 14.7856 88.4339 14.4122 88.7659 14.1522C89.011 13.9686 89.3016 13.8543 89.6064 13.8211C89.4902 13.737 89.367 13.6611 89.2404 13.5936C88.6244 13.3414 87.9494 13.2708 87.2942 13.3902C86.639 13.5096 86.0314 13.814 85.545 14.267C85.1334 14.6057 84.7639 14.9926 84.4452 15.4191C84.7113 15.3057 85.0009 15.2566 85.2897 15.2758C85.5338 15.2822 85.7744 15.3412 85.9934 15.4489C86.2123 15.5567 86.4049 15.7106 86.5583 15.8999C86.5854 15.9369 86.6086 15.9767 86.6267 16.0187C86.563 16.0242 86.4996 16.0264 86.4357 16.025H86.3814C86.1021 16.0273 85.8254 16.0637 85.5551 16.1336L85.5571 16.1306ZM51.1763 20.5074C51.029 20.8919 50.9833 21.3076 51.0436 21.7148C51.1171 22.2976 51.3763 22.8415 51.7835 23.2666C52.1322 23.6128 52.5538 23.8774 53.018 24.0411C53.4822 24.2047 53.9758 24.2634 54.4656 24.2127C55.3143 24.1489 56.1211 23.8158 56.7657 23.2623C57.4103 22.7088 57.8602 21.9642 58.0485 21.1377C58.1419 20.6615 58.1555 20.173 58.0887 19.6923C57.986 18.8929 57.6879 18.1311 57.2201 17.4734C56.7723 16.8199 56.1061 16.3454 55.3402 16.1346C55.068 16.0659 54.7866 16.0316 54.5058 16.0322H54.4536C54.3893 16.0335 54.3266 16.0314 54.2626 16.026C54.2828 15.9842 54.3052 15.9444 54.3329 15.9071C54.4858 15.718 54.6794 15.5642 54.8979 15.4564C55.1163 15.3486 55.3559 15.2893 55.5996 15.2828C55.8891 15.2634 56.1773 15.3128 56.444 15.4264C56.1242 15.0008 55.7568 14.6141 55.3462 14.2743C54.8595 13.821 54.2506 13.5166 53.595 13.3972C52.9395 13.2778 52.2652 13.3485 51.6488 13.6009C51.5227 13.6679 51.4 13.7439 51.2849 13.8283C51.5891 13.8615 51.879 13.9759 52.1233 14.1594C52.456 14.4189 52.6798 14.7919 52.7526 15.2064C52.8254 15.621 52.7419 16.0476 52.5174 16.4041C52.3901 16.5664 52.2312 16.7021 52.0509 16.803C51.8706 16.9039 51.6733 16.9681 51.4679 16.9919C51.2624 17.0158 51.0534 16.9988 50.8546 16.9419C50.6559 16.885 50.4711 16.7892 50.3098 16.6604C50.027 16.4627 49.8119 16.184 49.6925 15.8611C49.6664 15.9685 49.6324 16.0736 49.59 16.1756C49.3429 16.8839 48.8361 18.1015 48.3173 19.2003C48.551 18.7042 49.9456 18.3261 50.4284 18.1949C51.197 17.9847 51.9985 17.9212 52.7908 18.0074C53.3723 18.0382 53.9345 18.22 54.4234 18.5349C54.9123 18.8498 55.3109 19.2867 55.5775 19.8022C55.7681 20.3355 55.7413 20.9218 55.5031 21.4358C55.2649 21.9498 54.834 22.3505 54.3028 22.5521C54.0151 22.6876 53.6924 22.734 53.3779 22.685C53.0634 22.636 52.7719 22.4939 52.5395 22.2773C52.3356 22.0887 52.2044 21.8348 52.1695 21.5599C52.1404 21.326 52.1739 21.0885 52.2681 20.8722C52.3622 20.6559 52.513 20.4687 52.7044 20.3299C52.8152 20.2472 52.947 20.1942 53.0844 20.1763C53.2218 20.1583 53.3619 20.1758 53.4905 20.2273C53.5844 20.2654 53.6653 20.3273 53.7277 20.4068C53.7902 20.4862 53.8318 20.5807 53.8464 20.6805C53.8613 20.8214 53.8353 20.9636 53.772 21.0904C53.756 21.1238 53.7381 21.1559 53.7177 21.1868C53.6575 21.2607 53.6267 21.3542 53.6312 21.4493C53.6459 21.5072 53.6733 21.5605 53.7137 21.6047C53.7541 21.6488 53.8059 21.6826 53.8624 21.7025C53.9916 21.7478 54.1316 21.7506 54.2626 21.7108C54.3935 21.6709 54.5086 21.5905 54.5903 21.4811C54.7126 21.3389 54.8016 21.1722 54.8537 20.9923C54.9057 20.8125 54.9195 20.6237 54.8919 20.4385C54.8721 20.2882 54.8287 20.142 54.7632 20.0051C54.642 19.7778 54.4712 19.5805 54.2626 19.4286C54.054 19.2766 53.8131 19.1737 53.5589 19.1275C53.4402 19.1042 53.3199 19.0925 53.199 19.0927C52.7593 19.106 52.3322 19.2474 51.9725 19.4994C51.6128 19.7513 51.3354 20.1029 51.1743 20.5104L51.1763 20.5074ZM80.6834 13.8734C80.8567 14.6858 80.8756 15.5234 80.7397 16.3428C80.714 16.5427 80.6851 16.7455 80.6593 16.9454C80.6429 17.0643 80.6275 17.1831 80.6131 17.301C80.5307 17.8589 80.4902 18.4222 80.4924 18.9861C80.4637 20.4818 81.0194 21.9303 82.0426 23.0258C82.1775 23.157 82.3682 23.3004 82.501 23.2533C82.529 23.2426 82.5532 23.2245 82.5714 23.2007C82.5896 23.177 82.6006 23.1486 82.6035 23.1189C82.6091 23.0338 82.5925 22.9487 82.5553 22.8719C82.4863 22.7325 82.4054 22.5993 82.314 22.4733C82.0859 22.1486 81.8897 21.8025 81.729 21.44C81.4914 20.8483 81.3695 20.217 81.3691 19.5797C81.3711 19.4889 81.3775 19.3981 81.3892 19.3079C81.457 18.9219 81.5658 18.5441 81.7129 18.1806C81.8594 17.8062 81.9688 17.418 82.0386 17.0222C82.0606 16.8523 82.0645 16.6805 82.0506 16.5097C82.0401 16.4298 82.0241 16.3507 82.0024 16.273C81.9646 16.1558 81.947 16.0332 81.9501 15.9101C81.9524 15.8779 81.9622 15.8468 81.9803 15.82C81.9983 15.7932 82.0236 15.7717 82.0527 15.7575C82.2915 15.6324 82.5292 15.9297 82.7403 16.2915C83.4938 14.7404 84.7397 13.4796 86.2849 12.704C86.2954 12.6979 86.3071 12.6938 86.3191 12.6917C84.1676 12.6453 82.0153 12.5368 79.8631 12.3667C80.2545 12.797 80.5353 13.3156 80.6814 13.8776L80.6834 13.8734ZM58.8446 15.7555C58.8733 15.7702 58.899 15.7918 58.917 15.8185C58.935 15.8452 58.9464 15.8761 58.9492 15.9081C58.9532 16.0312 58.9357 16.154 58.8969 16.271C58.8739 16.3482 58.8585 16.4275 58.8507 16.5077C58.8338 16.6784 58.8377 16.8505 58.8627 17.0202C58.9311 17.4168 59.0418 17.8052 59.1925 18.1786C59.3373 18.5423 59.4428 18.9201 59.5081 19.3059C59.5208 19.396 59.5272 19.4868 59.5282 19.5777C59.5287 20.2151 59.4068 20.8465 59.1683 21.438C59.0082 21.8 58.8133 22.146 58.5873 22.4713C58.4955 22.5973 58.4139 22.7306 58.344 22.8699C58.3092 22.9475 58.2934 23.0321 58.2978 23.1169C58.3001 23.1468 58.3117 23.1754 58.3299 23.1992C58.3482 23.2231 58.372 23.2411 58.4003 23.2513C58.531 23.2984 58.7188 23.1548 58.8547 23.0236C59.8794 21.9289 60.4359 20.4803 60.4069 18.9841C60.4111 18.4202 60.3706 17.8567 60.2862 17.299L60.238 16.9434C60.2122 16.7384 60.1812 16.5404 60.1596 16.3405C60.023 15.5213 60.0413 14.6839 60.2138 13.8714C60.3657 13.3123 60.6487 12.7968 61.0382 12.3667C58.8867 12.5355 56.7344 12.6439 54.5822 12.6917C54.5948 12.6941 54.6071 12.6982 54.6184 12.704C56.1629 13.4792 57.4078 14.7403 58.159 16.2915C58.3361 15.984 58.5323 15.7287 58.7341 15.7287C58.7727 15.7303 58.8108 15.7409 58.8446 15.7595V15.7555ZM80.8483 22.5266C80.6542 22.269 80.4755 22.0014 80.3095 21.725C79.8363 20.9121 79.447 20.0536 79.1474 19.1625C78.5868 20.2841 77.7793 21.2652 76.785 22.0326C77.2039 21.9494 77.6284 21.9074 78.0556 21.9075C79.0208 21.9098 79.9746 22.1225 80.8483 22.5306V22.5266ZM60.5858 21.725C60.4278 21.9878 60.256 22.2419 60.0711 22.4865C61.3155 21.9296 62.7034 21.7717 64.042 22.0346C63.0737 21.2849 62.2808 20.3346 61.7177 19.2496C61.4226 20.1113 61.0437 20.942 60.5858 21.7301V21.725ZM89.7612 19.106C90.1587 19.5269 90.4448 20.0404 90.5915 20.5995C90.7383 21.1585 90.7415 21.7453 90.6016 22.3061C91.5583 21.8899 92.6071 21.7275 93.6456 21.8347C93.2378 21.1015 92.6692 20.4688 91.9829 19.9836C91.2965 19.4984 90.5104 19.1728 89.6807 19.0312L89.7612 19.106ZM50.2897 22.3061C50.1503 21.7453 50.155 21.1587 50.3017 20.5997C50.4485 20.0407 50.7329 19.5272 51.1301 19.106C51.1558 19.0814 51.1888 19.0558 51.2145 19.0312C50.3847 19.1731 49.5971 19.4987 48.9104 19.9839C48.2238 20.469 47.6561 21.1015 47.2477 21.8347C47.4536 21.8183 47.659 21.8101 47.8649 21.8101C48.7002 21.7974 49.5276 21.9673 50.2897 22.3081V22.3061ZM94.1563 11.8459C96.1572 12.2674 98.0613 13.0585 99.7698 14.1779C101.597 15.404 103.014 17.147 103.837 19.1821C103.96 17.252 102.401 14.8709 100.27 13.3098C98.9465 12.286 97.3351 11.6989 95.6602 11.6307C95.1512 11.6295 94.6439 11.7028 94.1563 11.8482V11.8459ZM40.6269 13.3098C38.4919 14.8699 36.9356 17.252 37.0581 19.1821C37.8834 17.1481 39.2998 15.4057 41.1255 14.1779C42.8345 13.0595 44.7384 12.2686 46.739 11.8459C46.2509 11.7015 45.7443 11.629 45.2351 11.6307C43.5601 11.6987 41.9478 12.2866 40.6249 13.3118L40.6269 13.3098ZM89.6265 12.707C89.9754 12.8553 90.2913 13.0714 90.5554 13.3426C90.8194 13.6138 91.0265 13.9347 91.1646 14.2865C91.2476 13.7157 91.4316 13.1639 91.7074 12.6567C91.0053 12.6844 90.3132 12.6998 89.6204 12.71L89.6265 12.707ZM49.7428 14.2865C49.8804 13.9348 50.0883 13.6138 50.352 13.3426C50.6157 13.0714 50.9302 12.8553 51.2789 12.707C50.585 12.6974 49.8931 12.6806 49.1999 12.6567C49.4733 13.1656 49.6546 13.7182 49.7368 14.2895L49.7428 14.2865ZM78.0958 13.0566C78.1334 13.1781 78.1623 13.3021 78.1823 13.4277C78.2129 13.6066 78.2618 13.7823 78.3251 13.9525C78.3523 14.0279 78.4049 14.0905 78.4758 14.1284C78.5468 14.1663 78.6309 14.1766 78.7091 14.1574C78.8058 14.1249 78.8893 14.0637 78.9503 13.9822C79.0114 13.9008 79.0471 13.8028 79.0509 13.7012C79.0519 13.2616 78.95 12.828 78.7533 12.4345C78.7327 12.3873 78.7085 12.3319 78.689 12.2786C78.3853 12.2499 78.0859 12.2252 77.7802 12.1975C77.8993 12.4779 78.0026 12.7648 78.0898 13.0566H78.0958ZM62.2184 12.2723C62.1968 12.3287 62.1757 12.3821 62.154 12.4282C61.9572 12.8217 61.8559 13.2557 61.8585 13.6952C61.8627 13.7967 61.896 13.8944 61.957 13.9757C62.018 14.0571 62.1038 14.1182 62.2003 14.1512C62.2787 14.1697 62.3604 14.1591 62.4315 14.1214C62.5026 14.0836 62.5581 14.0214 62.5863 13.9462C62.6479 13.7756 62.6941 13.6001 62.725 13.4214C62.746 13.2961 62.7748 13.1721 62.8115 13.0503C62.9011 12.756 63.0075 12.4671 63.1312 12.1852C62.8193 12.2191 62.514 12.2447 62.2123 12.2723H62.2184Z" fill="#800000"/>
</svg>
