<svg width="20" height="20" viewBox="0 0 20 20" fill="none" xmlns="http://www.w3.org/2000/svg">
<path d="M10.2891 0.629691C7.74219 0.549222 5.32031 1.48985 3.48867 3.26836C1.6418 5.0586 0.625 7.46875 0.625 10.0469C0.625 14.6797 4.0582 18.6836 8.61328 19.3633C8.66016 19.3711 8.70312 19.375 8.75 19.375C9.20664 19.375 9.60625 19.0411 9.67578 18.5762C9.75207 18.0641 9.3993 17.5867 8.88711 17.5105C5.24609 16.9648 2.5 13.7578 2.5 10.0469C2.5 7.97891 3.31484 6.05078 4.79414 4.61328C6.26016 3.19102 8.16328 2.43243 10.2316 2.50274C14.2383 2.625 17.5 6.16797 17.5 10.4023V11.1465C17.5 12.1016 16.7293 12.8793 15.7812 12.8793C14.8332 12.8793 14.0625 12.1016 14.0625 11.1445V6.58985C14.0625 6.07227 13.6426 5.6875 13.125 5.6875C12.6594 5.6875 12.2898 6.0334 12.2172 6.47852C11.5 5.9336 10.6328 5.625 9.6875 5.625C7.27539 5.625 5.3125 7.58789 5.3125 9.96485C5.3125 12.3418 7.27539 14.3047 9.6875 14.3047C10.8887 14.3047 11.9773 13.8172 12.7688 13.0305C13.4098 14.0227 14.5176 14.6836 15.7812 14.6836C17.7629 14.6836 19.375 13.0648 19.375 11.0758V10.4023C19.375 5.16407 15.2969 0.746097 10.2891 0.629691ZM9.6875 12.5C8.30859 12.5 7.1875 11.3789 7.1875 10.0352C7.1875 8.65664 8.30859 7.57032 9.6875 7.57032C11.0664 7.57032 12.1875 8.69141 12.1875 10.0352C12.1875 11.3789 11.0664 12.5 9.6875 12.5Z" fill="black"/>
</svg>
