<svg width="15" height="20" viewBox="0 0 15 20" fill="none" xmlns="http://www.w3.org/2000/svg">
<path d="M11.875 0H3.125C1.74414 0 0.625 1.11914 0.625 2.5V17.5C0.625 18.8809 1.74414 20 3.125 20H11.875C13.2559 20 14.375 18.8809 14.375 17.5V2.5C14.375 1.11914 13.2539 0 11.875 0ZM12.5 17.5C12.5 17.8446 12.2196 18.125 11.875 18.125H3.125C2.78047 18.125 2.5 17.8438 2.5 17.5V2.5C2.5 2.15539 2.78039 1.875 3.125 1.875H11.875C12.2188 1.875 12.5 2.15547 12.5 2.5V17.5ZM7.5 15.3125C6.98242 15.3125 6.5625 15.732 6.5625 16.25C6.5625 16.7676 6.98242 17.1875 7.5 17.1875C8.01758 17.1875 8.4375 16.7676 8.4375 16.25C8.4375 15.7305 8.01953 15.3125 7.5 15.3125Z" fill="black"/>
</svg>
