<svg width="18" height="20" viewBox="0 0 18 20" fill="none" xmlns="http://www.w3.org/2000/svg">
<path d="M10.9286 11.875H7.07143C3.16607 11.875 0 14.9531 0 18.75C0 19.4402 0.575759 20 1.28571 20H16.7143C17.4242 20 18 19.4402 18 18.75C18 14.9531 14.8339 11.875 10.9286 11.875ZM1.96835 18.125C2.28576 15.6602 4.45179 13.75 7.07143 13.75H10.9286C13.5466 13.75 15.7138 15.6621 16.0312 18.125H1.96835ZM9 10C11.8402 10 14.1429 7.76133 14.1429 5C14.1429 2.23867 11.8402 0 9 0C6.15978 0 3.85714 2.23867 3.85714 5C3.85714 7.76172 6.15938 10 9 10ZM9 1.875C10.7723 1.875 12.2143 3.27695 12.2143 5C12.2143 6.72305 10.7723 8.125 9 8.125C7.22772 8.125 5.78571 6.72266 5.78571 5C5.78571 3.27695 7.22812 1.875 9 1.875Z" fill="black"/>
</svg>
